<?xml version="1.0" standalone="no"?>
<!DOCTYPE svg PUBLIC "-//W3C//DTD SVG 20010904//EN"
 "http://www.w3.org/TR/2001/REC-SVG-20010904/DTD/svg10.dtd">
<svg version="1.0" xmlns="http://www.w3.org/2000/svg"
 width="225.000000pt" height="225.000000pt" viewBox="0 0 225.000000 225.000000"
 preserveAspectRatio="xMidYMid meet">

<g transform="translate(0.000000,225.000000) scale(0.100000,-0.100000)"
fill="#000000" stroke="none">
<path d="M569 1466 l-24 -12 -3 -325 c-3 -355 -3 -352 53 -352 53 0 54 6 57
268 l3 243 128 -109 c86 -74 136 -109 152 -109 17 0 77 45 194 145 l170 145
121 0 c121 0 122 0 151 -29 31 -31 35 -53 19 -95 -17 -45 -55 -56 -204 -56
l-135 0 -183 -158 c-171 -147 -183 -160 -183 -192 0 -59 10 -61 366 -58 l316
3 48 30 c63 39 95 97 95 174 0 53 -7 76 -40 127 -12 19 -10 26 11 55 18 25 24
50 27 99 5 86 -24 142 -93 185 -48 30 -48 30 -204 30 l-157 0 -156 -134 c-86
-73 -158 -134 -161 -135 -3 0 -73 57 -157 129 -83 71 -159 133 -169 137 -10 3
-29 1 -42 -6z m988 -416 c55 -33 55 -109 -1 -145 -19 -13 -60 -15 -241 -13
l-218 3 102 88 103 87 111 0 c93 0 117 -3 144 -20z"/>
</g>
</svg>
