<svg id="visual" viewBox="0 0 900 200" width="900" height="200" xmlns="http://www.w3.org/2000/svg" xmlns:xlink="http://www.w3.org/1999/xlink" version="1.1"><rect x="0" y="0" width="900" height="200" fill="#ffffff"></rect><path d="M0 82L21.5 83.2C43 84.3 86 86.7 128.8 83.8C171.7 81 214.3 73 257.2 76.2C300 79.3 343 93.7 385.8 97C428.7 100.3 471.3 92.7 514.2 89.2C557 85.7 600 86.3 642.8 90.3C685.7 94.3 728.3 101.7 771.2 104C814 106.3 857 103.7 878.5 102.3L900 101L900 201L878.5 201C857 201 814 201 771.2 201C728.3 201 685.7 201 642.8 201C600 201 557 201 514.2 201C471.3 201 428.7 201 385.8 201C343 201 300 201 257.2 201C214.3 201 171.7 201 128.8 201C86 201 43 201 21.5 201L0 201Z" fill="#fa7268"></path><path d="M0 116L21.5 117.3C43 118.7 86 121.3 128.8 119.3C171.7 117.3 214.3 110.7 257.2 106C300 101.3 343 98.7 385.8 99.8C428.7 101 471.3 106 514.2 107.5C557 109 600 107 642.8 108.2C685.7 109.3 728.3 113.7 771.2 110.2C814 106.7 857 95.3 878.5 89.7L900 84L900 201L878.5 201C857 201 814 201 771.2 201C728.3 201 685.7 201 642.8 201C600 201 557 201 514.2 201C471.3 201 428.7 201 385.8 201C343 201 300 201 257.2 201C214.3 201 171.7 201 128.8 201C86 201 43 201 21.5 201L0 201Z" fill="#eb5967"></path><path d="M0 129L21.5 127.7C43 126.3 86 123.7 128.8 128.5C171.7 133.3 214.3 145.7 257.2 148C300 150.3 343 142.7 385.8 138.3C428.7 134 471.3 133 514.2 134C557 135 600 138 642.8 142C685.7 146 728.3 151 771.2 153.8C814 156.7 857 157.3 878.5 157.7L900 158L900 201L878.5 201C857 201 814 201 771.2 201C728.3 201 685.7 201 642.8 201C600 201 557 201 514.2 201C471.3 201 428.7 201 385.8 201C343 201 300 201 257.2 201C214.3 201 171.7 201 128.8 201C86 201 43 201 21.5 201L0 201Z" fill="#da3f67"></path><path d="M0 179L21.5 177C43 175 86 171 128.8 166.7C171.7 162.3 214.3 157.7 257.2 154.8C300 152 343 151 385.8 152.7C428.7 154.3 471.3 158.7 514.2 159.3C557 160 600 157 642.8 154.5C685.7 152 728.3 150 771.2 153.3C814 156.7 857 165.3 878.5 169.7L900 174L900 201L878.5 201C857 201 814 201 771.2 201C728.3 201 685.7 201 642.8 201C600 201 557 201 514.2 201C471.3 201 428.7 201 385.8 201C343 201 300 201 257.2 201C214.3 201 171.7 201 128.8 201C86 201 43 201 21.5 201L0 201Z" fill="#c62368"></path></svg>