<svg version="1.1" id="Layer_1" xmlns="http://www.w3.org/2000/svg" xmlns:xlink="http://www.w3.org/1999/xlink" x="0px" y="0px"
	 width="100%" viewBox="0 0 1100 156" enable-background="new 0 0 1100 156" xml:space="preserve">
<path fill="#010000" opacity="1.000000" stroke="none" 
	d="
M1.000000,66.000000 
	C1.000000,44.341091 1.000000,22.682184 1.000000,1.041314 
	C367.666656,1.041314 734.333313,1.041314 1101.000000,1.041314 
	C1101.000000,12.745077 1101.000000,24.407524 1100.612061,36.601021 
	C1090.648560,39.269131 1081.071533,41.398590 1071.498047,43.544601 
	C1033.602905,52.039318 995.442932,58.674282 956.520630,59.994919 
	C919.225098,61.260353 882.378723,56.176464 845.554260,51.581406 
	C800.444092,45.952454 755.535034,47.270267 710.514648,52.373173 
	C685.546753,55.203205 660.480530,57.614738 635.391602,58.828651 
	C592.142273,60.921253 549.271362,55.214619 506.395447,50.579090 
	C468.281616,46.458408 430.106934,43.974873 391.748138,43.702629 
	C334.558533,43.296734 278.189941,51.240818 221.827316,59.406208 
	C180.895630,65.336082 139.798309,69.252815 98.422729,68.818176 
	C67.619583,68.494591 36.826775,67.185692 5.623705,66.201332 
	C3.812031,66.058029 2.406016,66.029015 1.000000,66.000000 
z"/>
<path fill="#F97168" opacity="1.000000" stroke="none" 
	d="
M6.029363,66.315628 
	C36.826775,67.185692 67.619583,68.494591 98.422729,68.818176 
	C139.798309,69.252815 180.895630,65.336082 221.827316,59.406208 
	C278.189941,51.240818 334.558533,43.296734 391.748138,43.702629 
	C430.106934,43.974873 468.281616,46.458408 506.395447,50.579090 
	C549.271362,55.214619 592.142273,60.921253 635.391602,58.828651 
	C660.480530,57.614738 685.546753,55.203205 710.514648,52.373173 
	C755.535034,47.270267 800.444092,45.952454 845.554260,51.581406 
	C882.378723,56.176464 919.225098,61.260353 956.520630,59.994919 
	C995.442932,58.674282 1033.602905,52.039318 1071.498047,43.544601 
	C1081.071533,41.398590 1090.648560,39.269131 1100.612061,37.066032 
	C1101.000000,54.687561 1101.000000,72.375122 1100.531372,90.534042 
	C1092.708496,90.994102 1085.354248,90.982811 1077.708740,90.749680 
	C1076.329224,90.116974 1075.272339,89.565506 1074.148315,89.315933 
	C1051.395264,84.263649 1028.781006,78.392288 1005.835815,74.449394 
	C980.305420,70.062241 954.544678,66.620667 928.745361,64.331757 
	C911.428162,62.795368 893.842224,63.345314 876.425659,64.098839 
	C852.030579,65.154282 827.623291,66.681221 803.327576,69.082314 
	C775.214233,71.860687 747.229187,75.915543 719.164917,79.216499 
	C687.808655,82.904663 656.487854,87.126060 625.035706,89.696526 
	C598.704529,91.848488 572.213684,92.513893 545.780823,92.855461 
	C490.147583,93.574364 434.506073,93.647682 378.868011,93.995827 
	C377.537506,94.004150 376.207733,94.128815 374.495239,94.216370 
	C368.322266,94.072647 362.516541,94.124451 356.743896,93.712578 
	C336.236176,92.249367 315.762665,90.101074 295.232880,89.208794 
	C272.847046,88.235855 250.413086,88.371674 227.655945,87.806190 
	C222.199280,87.060478 217.092712,86.464531 211.973114,86.018341 
	C199.061539,84.893059 186.137573,83.907181 173.230667,82.732376 
	C156.687042,81.226540 140.160812,79.529655 123.616852,78.027672 
	C107.235344,76.540436 90.838814,75.219429 74.453110,73.777435 
	C56.581509,72.204674 38.705563,70.670174 20.851845,68.912445 
	C15.874045,68.422386 10.968210,67.201340 6.029363,66.315628 
z"/>
<path fill="#8E053E" opacity="1.000000" stroke="none" 
	d="
M1101.000000,138.000000 
	C1101.000000,144.330963 1101.000000,150.661926 1101.000000,156.959564 
	C734.333313,156.959564 367.666656,156.959564 1.000000,156.959564 
	C1.000000,148.921997 1.000000,140.924881 1.442995,132.462006 
	C12.974431,131.005249 24.049412,129.813568 35.154369,129.068848 
	C53.231106,127.856590 71.315414,126.538544 89.418472,125.991417 
	C113.332756,125.268661 137.281876,124.601929 161.190674,125.108139 
	C184.271576,125.596817 207.331161,127.444145 230.380035,128.993317 
	C252.761871,130.497665 275.102631,132.630524 297.489899,134.032425 
	C322.705048,135.611435 347.944672,137.606247 373.186523,137.808334 
	C466.133423,138.552505 559.085815,138.590210 652.035706,138.994095 
	C668.343262,139.064941 684.649841,139.940521 700.954895,139.884979 
	C738.921570,139.755676 776.889221,139.431808 814.851868,138.873871 
	C828.141174,138.678558 841.416321,137.555832 854.699036,136.876968 
	C880.099060,135.578781 905.490112,134.026886 930.903931,133.105881 
	C946.212891,132.551041 961.559570,132.835068 976.885986,133.017242 
	C995.525452,133.238800 1014.174683,133.436569 1032.795776,134.215607 
	C1055.543457,135.167313 1078.266357,136.711838 1101.000000,138.000000 
z"/>
<path fill="#AA2749" opacity="1.000000" stroke="none" 
	d="
M1101.000000,137.531723 
	C1078.266357,136.711838 1055.543457,135.167313 1032.795776,134.215607 
	C1014.174683,133.436569 995.525452,133.238800 976.885986,133.017242 
	C961.559570,132.835068 946.212891,132.551041 930.903931,133.105881 
	C905.490112,134.026886 880.099060,135.578781 854.699036,136.876968 
	C841.416321,137.555832 828.141174,138.678558 814.851868,138.873871 
	C776.889221,139.431808 738.921570,139.755676 700.954895,139.884979 
	C684.649841,139.940521 668.343262,139.064941 652.035706,138.994095 
	C559.085815,138.590210 466.133423,138.552505 373.186523,137.808334 
	C347.944672,137.606247 322.705048,135.611435 297.489899,134.032425 
	C275.102631,132.630524 252.761871,130.497665 230.380035,128.993317 
	C207.331161,127.444145 184.271576,125.596817 161.190674,125.108139 
	C137.281876,124.601929 113.332756,125.268661 89.418472,125.991417 
	C71.315414,126.538544 53.231106,127.856590 35.154369,129.068848 
	C24.049412,129.813568 12.974431,131.005249 1.442995,131.998108 
	C1.000000,122.979103 1.000000,113.958214 1.459772,104.469139 
	C19.344288,104.980385 36.762638,106.097694 54.195312,106.906113 
	C78.781548,108.046265 103.371742,109.187294 127.972641,109.899925 
	C150.771149,110.560341 173.586777,110.612198 196.393188,111.024734 
	C206.704758,111.211243 217.011841,111.637611 227.321686,111.929024 
	C263.745575,112.958580 300.172638,113.886734 336.592316,115.048088 
	C349.383179,115.455971 362.155457,116.437866 374.937408,117.135994 
	C398.505127,118.423225 422.062683,120.007538 445.646606,120.842560 
	C457.762177,121.271530 469.934631,120.550575 482.065094,119.994171 
	C499.663727,119.186958 517.254517,118.165718 534.836182,117.040932 
	C559.381348,115.470657 583.893311,112.993896 608.459900,112.258469 
	C631.570862,111.566612 654.747253,112.247948 677.871521,113.020752 
	C705.785095,113.953613 733.662048,116.252533 761.577271,116.785149 
	C788.201233,117.293129 814.854980,116.345528 841.493591,115.913940 
	C848.304810,115.803574 855.108887,115.233246 861.915466,114.859642 
	C885.150513,113.584328 908.379150,111.403076 931.621704,111.243149 
	C963.064209,111.026794 994.520935,112.233971 1025.964111,113.100624 
	C1036.254761,113.384262 1046.527710,114.442574 1056.798950,115.268547 
	C1071.537354,116.453758 1086.266724,117.750740 1101.000000,119.000000 
	C1101.000000,125.021149 1101.000000,131.042297 1101.000000,137.531723 
z"/>
<path fill="#C54053" opacity="1.000000" stroke="none" 
	d="
M1101.000000,118.531342 
	C1086.266724,117.750740 1071.537354,116.453758 1056.798950,115.268547 
	C1046.527710,114.442574 1036.254761,113.384262 1025.964111,113.100624 
	C994.520935,112.233971 963.064209,111.026794 931.621704,111.243149 
	C908.379150,111.403076 885.150513,113.584328 861.915466,114.859642 
	C855.108887,115.233246 848.304810,115.803574 841.493591,115.913940 
	C814.854980,116.345528 788.201233,117.293129 761.577271,116.785149 
	C733.662048,116.252533 705.785095,113.953613 677.871521,113.020752 
	C654.747253,112.247948 631.570862,111.566612 608.459900,112.258469 
	C583.893311,112.993896 559.381348,115.470657 534.836182,117.040932 
	C517.254517,118.165718 499.663727,119.186958 482.065094,119.994171 
	C469.934631,120.550575 457.762177,121.271530 445.646606,120.842560 
	C422.062683,120.007538 398.505127,118.423225 374.937408,117.135994 
	C362.155457,116.437866 349.383179,115.455971 336.592316,115.048088 
	C300.172638,113.886734 263.745575,112.958580 227.321686,111.929024 
	C217.011841,111.637611 206.704758,111.211243 196.393188,111.024734 
	C173.586777,110.612198 150.771149,110.560341 127.972641,109.899925 
	C103.371742,109.187294 78.781548,108.046265 54.195312,106.906113 
	C36.762638,106.097694 19.344288,104.980385 1.459772,104.000481 
	C1.000000,100.307091 1.000000,96.614182 1.468657,92.460678 
	C25.909748,91.679436 49.882225,91.362198 73.854599,91.037201 
	C98.160110,90.707687 122.465546,90.372963 146.770950,90.036003 
	C171.909378,89.687492 197.048065,89.352882 222.185516,88.944176 
	C224.128174,88.912590 226.062119,88.343445 228.000107,88.024155 
	C250.413086,88.371674 272.847046,88.235855 295.232880,89.208794 
	C315.762665,90.101074 336.236176,92.249367 356.743896,93.712578 
	C362.516541,94.124451 368.322266,94.072647 374.708252,94.521004 
	C376.360260,95.196129 377.392090,95.823494 378.477142,95.935577 
	C395.661865,97.710709 412.838837,99.585548 430.047180,101.100830 
	C450.396088,102.892639 470.748596,105.038467 491.145203,105.787468 
	C513.559082,106.610550 536.025818,106.158508 558.467834,106.007103 
	C585.599609,105.824059 612.728821,105.183121 639.860474,105.081108 
	C686.338013,104.906342 732.816711,105.062355 779.294556,104.925705 
	C790.099243,104.893936 800.911621,104.422340 811.703735,103.840813 
	C833.270142,102.678719 854.821655,101.242920 876.385620,100.031815 
	C890.656372,99.230324 904.941345,98.685196 919.213989,97.914772 
	C942.275696,96.669937 965.322815,95.114349 988.394409,94.110085 
	C1005.179565,93.379463 1021.994934,93.357872 1038.795410,92.960320 
	C1050.434204,92.684914 1062.071777,92.338120 1073.706787,91.936974 
	C1075.147339,91.887321 1076.569336,91.306313 1078.000000,90.971519 
	C1085.354248,90.982811 1092.708496,90.994102 1100.531372,91.002701 
	C1101.000000,100.020897 1101.000000,109.041786 1101.000000,118.531342 
z"/>
<path fill="#E0595D" opacity="1.000000" stroke="none" 
	d="
M227.655945,87.806198 
	C226.062119,88.343445 224.128174,88.912590 222.185516,88.944176 
	C197.048065,89.352882 171.909378,89.687492 146.770950,90.036003 
	C122.465546,90.372963 98.160110,90.707687 73.854599,91.037201 
	C49.882225,91.362198 25.909748,91.679436 1.468657,92.000038 
	C1.000000,83.645767 1.000000,75.291534 1.000000,66.468651 
	C2.406016,66.029015 3.812031,66.058029 5.623705,66.201324 
	C10.968210,67.201340 15.874045,68.422386 20.851845,68.912445 
	C38.705563,70.670174 56.581509,72.204674 74.453110,73.777435 
	C90.838814,75.219429 107.235344,76.540436 123.616852,78.027672 
	C140.160812,79.529655 156.687042,81.226540 173.230667,82.732376 
	C186.137573,83.907181 199.061539,84.893059 211.973114,86.018341 
	C217.092712,86.464531 222.199280,87.060478 227.655945,87.806198 
z"/>
<path fill="#E0595D" opacity="1.000000" stroke="none" 
	d="
M1077.708740,90.749695 
	C1076.569336,91.306313 1075.147339,91.887321 1073.706787,91.936974 
	C1062.071777,92.338120 1050.434204,92.684914 1038.795410,92.960320 
	C1021.994934,93.357872 1005.179565,93.379463 988.394409,94.110085 
	C965.322815,95.114349 942.275696,96.669937 919.213989,97.914772 
	C904.941345,98.685196 890.656372,99.230324 876.385620,100.031815 
	C854.821655,101.242920 833.270142,102.678719 811.703735,103.840813 
	C800.911621,104.422340 790.099243,104.893936 779.294556,104.925705 
	C732.816711,105.062355 686.338013,104.906342 639.860474,105.081108 
	C612.728821,105.183121 585.599609,105.824059 558.467834,106.007103 
	C536.025818,106.158508 513.559082,106.610550 491.145203,105.787468 
	C470.748596,105.038467 450.396088,102.892639 430.047180,101.100830 
	C412.838837,99.585548 395.661865,97.710709 378.477142,95.935577 
	C377.392090,95.823494 376.360260,95.196129 375.090637,94.503845 
	C376.207733,94.128815 377.537506,94.004150 378.868011,93.995827 
	C434.506073,93.647682 490.147583,93.574364 545.780823,92.855461 
	C572.213684,92.513893 598.704529,91.848488 625.035706,89.696526 
	C656.487854,87.126060 687.808655,82.904663 719.164917,79.216499 
	C747.229187,75.915543 775.214233,71.860687 803.327576,69.082314 
	C827.623291,66.681221 852.030579,65.154282 876.425659,64.098839 
	C893.842224,63.345314 911.428162,62.795368 928.745361,64.331757 
	C954.544678,66.620667 980.305420,70.062241 1005.835815,74.449394 
	C1028.781006,78.392288 1051.395264,84.263649 1074.148315,89.315933 
	C1075.272339,89.565506 1076.329224,90.116974 1077.708740,90.749695 
z"/>
</svg>