<svg id="visual" viewBox="0 0 960 250" width="960" height="250" xmlns="http://www.w3.org/2000/svg" xmlns:xlink="http://www.w3.org/1999/xlink" version="1.1"><rect x="0" y="0" width="960" height="250" fill="#001220"></rect><path d="M0 104L8.8 99C17.7 94 35.3 84 53.2 85.5C71 87 89 100 106.8 100.2C124.7 100.3 142.3 87.7 160 86.3C177.7 85 195.3 95 213.2 97.7C231 100.3 249 95.7 266.8 93.2C284.7 90.7 302.3 90.3 320 93.3C337.7 96.3 355.3 102.7 373.2 96.7C391 90.7 409 72.3 426.8 73C444.7 73.7 462.3 93.3 480 99C497.7 104.7 515.3 96.3 533.2 93.2C551 90 569 92 586.8 91.7C604.7 91.3 622.3 88.7 640 89C657.7 89.3 675.3 92.7 693.2 92.5C711 92.3 729 88.7 746.8 87.3C764.7 86 782.3 87 800 86.5C817.7 86 835.3 84 853.2 84.3C871 84.7 889 87.3 906.8 92.5C924.7 97.7 942.3 105.3 951.2 109.2L960 113L960 251L951.2 251C942.3 251 924.7 251 906.8 251C889 251 871 251 853.2 251C835.3 251 817.7 251 800 251C782.3 251 764.7 251 746.8 251C729 251 711 251 693.2 251C675.3 251 657.7 251 640 251C622.3 251 604.7 251 586.8 251C569 251 551 251 533.2 251C515.3 251 497.7 251 480 251C462.3 251 444.7 251 426.8 251C409 251 391 251 373.2 251C355.3 251 337.7 251 320 251C302.3 251 284.7 251 266.8 251C249 251 231 251 213.2 251C195.3 251 177.7 251 160 251C142.3 251 124.7 251 106.8 251C89 251 71 251 53.2 251C35.3 251 17.7 251 8.8 251L0 251Z" fill="#0066ff"></path><path d="M0 119L8.8 115.5C17.7 112 35.3 105 53.2 106.5C71 108 89 118 106.8 122.2C124.7 126.3 142.3 124.7 160 122C177.7 119.3 195.3 115.7 213.2 115.7C231 115.7 249 119.3 266.8 121.7C284.7 124 302.3 125 320 122.5C337.7 120 355.3 114 373.2 106C391 98 409 88 426.8 89.5C444.7 91 462.3 104 480 110.8C497.7 117.7 515.3 118.3 533.2 120.3C551 122.3 569 125.7 586.8 125C604.7 124.3 622.3 119.7 640 112.5C657.7 105.3 675.3 95.7 693.2 95.7C711 95.7 729 105.3 746.8 103C764.7 100.7 782.3 86.3 800 83.5C817.7 80.7 835.3 89.3 853.2 92.8C871 96.3 889 94.7 906.8 93.5C924.7 92.3 942.3 91.7 951.2 91.3L960 91L960 251L951.2 251C942.3 251 924.7 251 906.8 251C889 251 871 251 853.2 251C835.3 251 817.7 251 800 251C782.3 251 764.7 251 746.8 251C729 251 711 251 693.2 251C675.3 251 657.7 251 640 251C622.3 251 604.7 251 586.8 251C569 251 551 251 533.2 251C515.3 251 497.7 251 480 251C462.3 251 444.7 251 426.8 251C409 251 391 251 373.2 251C355.3 251 337.7 251 320 251C302.3 251 284.7 251 266.8 251C249 251 231 251 213.2 251C195.3 251 177.7 251 160 251C142.3 251 124.7 251 106.8 251C89 251 71 251 53.2 251C35.3 251 17.7 251 8.8 251L0 251Z" fill="#007aff"></path><path d="M0 132L8.8 127.7C17.7 123.3 35.3 114.7 53.2 113.8C71 113 89 120 106.8 117C124.7 114 142.3 101 160 94.5C177.7 88 195.3 88 213.2 91.2C231 94.3 249 100.7 266.8 104.2C284.7 107.7 302.3 108.3 320 113.7C337.7 119 355.3 129 373.2 131.3C391 133.7 409 128.3 426.8 126.3C444.7 124.3 462.3 125.7 480 122.2C497.7 118.7 515.3 110.3 533.2 108.8C551 107.3 569 112.7 586.8 113.3C604.7 114 622.3 110 640 107C657.7 104 675.3 102 693.2 104.3C711 106.7 729 113.3 746.8 118.5C764.7 123.7 782.3 127.3 800 127.3C817.7 127.3 835.3 123.7 853.2 117.2C871 110.7 889 101.3 906.8 101.3C924.7 101.3 942.3 110.7 951.2 115.3L960 120L960 251L951.2 251C942.3 251 924.7 251 906.8 251C889 251 871 251 853.2 251C835.3 251 817.7 251 800 251C782.3 251 764.7 251 746.8 251C729 251 711 251 693.2 251C675.3 251 657.7 251 640 251C622.3 251 604.7 251 586.8 251C569 251 551 251 533.2 251C515.3 251 497.7 251 480 251C462.3 251 444.7 251 426.8 251C409 251 391 251 373.2 251C355.3 251 337.7 251 320 251C302.3 251 284.7 251 266.8 251C249 251 231 251 213.2 251C195.3 251 177.7 251 160 251C142.3 251 124.7 251 106.8 251C89 251 71 251 53.2 251C35.3 251 17.7 251 8.8 251L0 251Z" fill="#008cff"></path><path d="M0 127L8.8 131.7C17.7 136.3 35.3 145.7 53.2 144.8C71 144 89 133 106.8 127.7C124.7 122.3 142.3 122.7 160 127.8C177.7 133 195.3 143 213.2 140.2C231 137.3 249 121.7 266.8 117.7C284.7 113.7 302.3 121.3 320 127C337.7 132.7 355.3 136.3 373.2 132.8C391 129.3 409 118.7 426.8 115.8C444.7 113 462.3 118 480 118.8C497.7 119.7 515.3 116.3 533.2 113.3C551 110.3 569 107.7 586.8 108.3C604.7 109 622.3 113 640 114.8C657.7 116.7 675.3 116.3 693.2 122.3C711 128.3 729 140.7 746.8 139.3C764.7 138 782.3 123 800 115.2C817.7 107.3 835.3 106.7 853.2 108.3C871 110 889 114 906.8 118.7C924.7 123.3 942.3 128.7 951.2 131.3L960 134L960 251L951.2 251C942.3 251 924.7 251 906.8 251C889 251 871 251 853.2 251C835.3 251 817.7 251 800 251C782.3 251 764.7 251 746.8 251C729 251 711 251 693.2 251C675.3 251 657.7 251 640 251C622.3 251 604.7 251 586.8 251C569 251 551 251 533.2 251C515.3 251 497.7 251 480 251C462.3 251 444.7 251 426.8 251C409 251 391 251 373.2 251C355.3 251 337.7 251 320 251C302.3 251 284.7 251 266.8 251C249 251 231 251 213.2 251C195.3 251 177.7 251 160 251C142.3 251 124.7 251 106.8 251C89 251 71 251 53.2 251C35.3 251 17.7 251 8.8 251L0 251Z" fill="#009bfe"></path><path d="M0 136L8.8 134C17.7 132 35.3 128 53.2 126.2C71 124.3 89 124.7 106.8 125.2C124.7 125.7 142.3 126.3 160 128.5C177.7 130.7 195.3 134.3 213.2 138.7C231 143 249 148 266.8 147C284.7 146 302.3 139 320 137.8C337.7 136.7 355.3 141.3 373.2 141.2C391 141 409 136 426.8 137.2C444.7 138.3 462.3 145.7 480 146.2C497.7 146.7 515.3 140.3 533.2 138.3C551 136.3 569 138.7 586.8 139.3C604.7 140 622.3 139 640 137.3C657.7 135.7 675.3 133.3 693.2 138.5C711 143.7 729 156.3 746.8 163C764.7 169.7 782.3 170.3 800 163.8C817.7 157.3 835.3 143.7 853.2 141C871 138.3 889 146.7 906.8 149.2C924.7 151.7 942.3 148.3 951.2 146.7L960 145L960 251L951.2 251C942.3 251 924.7 251 906.8 251C889 251 871 251 853.2 251C835.3 251 817.7 251 800 251C782.3 251 764.7 251 746.8 251C729 251 711 251 693.2 251C675.3 251 657.7 251 640 251C622.3 251 604.7 251 586.8 251C569 251 551 251 533.2 251C515.3 251 497.7 251 480 251C462.3 251 444.7 251 426.8 251C409 251 391 251 373.2 251C355.3 251 337.7 251 320 251C302.3 251 284.7 251 266.8 251C249 251 231 251 213.2 251C195.3 251 177.7 251 160 251C142.3 251 124.7 251 106.8 251C89 251 71 251 53.2 251C35.3 251 17.7 251 8.8 251L0 251Z" fill="#00a9f8"></path><path d="M0 180L8.8 177.7C17.7 175.3 35.3 170.7 53.2 165.3C71 160 89 154 106.8 150.3C124.7 146.7 142.3 145.3 160 147.3C177.7 149.3 195.3 154.7 213.2 160.2C231 165.7 249 171.3 266.8 170.8C284.7 170.3 302.3 163.7 320 162.3C337.7 161 355.3 165 373.2 166.8C391 168.7 409 168.3 426.8 167C444.7 165.7 462.3 163.3 480 159.2C497.7 155 515.3 149 533.2 152.8C551 156.7 569 170.3 586.8 176.2C604.7 182 622.3 180 640 173.7C657.7 167.3 675.3 156.7 693.2 152.2C711 147.7 729 149.3 746.8 151C764.7 152.7 782.3 154.3 800 156.5C817.7 158.7 835.3 161.3 853.2 164.3C871 167.3 889 170.7 906.8 168.7C924.7 166.7 942.3 159.3 951.2 155.7L960 152L960 251L951.2 251C942.3 251 924.7 251 906.8 251C889 251 871 251 853.2 251C835.3 251 817.7 251 800 251C782.3 251 764.7 251 746.8 251C729 251 711 251 693.2 251C675.3 251 657.7 251 640 251C622.3 251 604.7 251 586.8 251C569 251 551 251 533.2 251C515.3 251 497.7 251 480 251C462.3 251 444.7 251 426.8 251C409 251 391 251 373.2 251C355.3 251 337.7 251 320 251C302.3 251 284.7 251 266.8 251C249 251 231 251 213.2 251C195.3 251 177.7 251 160 251C142.3 251 124.7 251 106.8 251C89 251 71 251 53.2 251C35.3 251 17.7 251 8.8 251L0 251Z" fill="#27b5f0"></path><path d="M0 174L8.8 177.7C17.7 181.3 35.3 188.7 53.2 189C71 189.3 89 182.7 106.8 178.3C124.7 174 142.3 172 160 175.2C177.7 178.3 195.3 186.7 213.2 188C231 189.3 249 183.7 266.8 183.7C284.7 183.7 302.3 189.3 320 189.2C337.7 189 355.3 183 373.2 181C391 179 409 181 426.8 183.3C444.7 185.7 462.3 188.3 480 187C497.7 185.7 515.3 180.3 533.2 178.5C551 176.7 569 178.3 586.8 176.3C604.7 174.3 622.3 168.7 640 170C657.7 171.3 675.3 179.7 693.2 182.2C711 184.7 729 181.3 746.8 181C764.7 180.7 782.3 183.3 800 186.3C817.7 189.3 835.3 192.7 853.2 188.8C871 185 889 174 906.8 170.5C924.7 167 942.3 171 951.2 173L960 175L960 251L951.2 251C942.3 251 924.7 251 906.8 251C889 251 871 251 853.2 251C835.3 251 817.7 251 800 251C782.3 251 764.7 251 746.8 251C729 251 711 251 693.2 251C675.3 251 657.7 251 640 251C622.3 251 604.7 251 586.8 251C569 251 551 251 533.2 251C515.3 251 497.7 251 480 251C462.3 251 444.7 251 426.8 251C409 251 391 251 373.2 251C355.3 251 337.7 251 320 251C302.3 251 284.7 251 266.8 251C249 251 231 251 213.2 251C195.3 251 177.7 251 160 251C142.3 251 124.7 251 106.8 251C89 251 71 251 53.2 251C35.3 251 17.7 251 8.8 251L0 251Z" fill="#53c0e8"></path><path d="M0 186L8.8 188.5C17.7 191 35.3 196 53.2 195.8C71 195.7 89 190.3 106.8 191.7C124.7 193 142.3 201 160 204.5C177.7 208 195.3 207 213.2 207C231 207 249 208 266.8 203.8C284.7 199.7 302.3 190.3 320 190.3C337.7 190.3 355.3 199.7 373.2 201.5C391 203.3 409 197.7 426.8 197C444.7 196.3 462.3 200.7 480 199.8C497.7 199 515.3 193 533.2 193.8C551 194.7 569 202.3 586.8 202C604.7 201.7 622.3 193.3 640 190.2C657.7 187 675.3 189 693.2 188.7C711 188.3 729 185.7 746.8 186.3C764.7 187 782.3 191 800 191.5C817.7 192 835.3 189 853.2 190.5C871 192 889 198 906.8 200C924.7 202 942.3 200 951.2 199L960 198L960 251L951.2 251C942.3 251 924.7 251 906.8 251C889 251 871 251 853.2 251C835.3 251 817.7 251 800 251C782.3 251 764.7 251 746.8 251C729 251 711 251 693.2 251C675.3 251 657.7 251 640 251C622.3 251 604.7 251 586.8 251C569 251 551 251 533.2 251C515.3 251 497.7 251 480 251C462.3 251 444.7 251 426.8 251C409 251 391 251 373.2 251C355.3 251 337.7 251 320 251C302.3 251 284.7 251 266.8 251C249 251 231 251 213.2 251C195.3 251 177.7 251 160 251C142.3 251 124.7 251 106.8 251C89 251 71 251 53.2 251C35.3 251 17.7 251 8.8 251L0 251Z" fill="#78cae0"></path><path d="M0 215L8.8 213.8C17.7 212.7 35.3 210.3 53.2 209.3C71 208.3 89 208.7 106.8 209.2C124.7 209.7 142.3 210.3 160 210.3C177.7 210.3 195.3 209.7 213.2 207.7C231 205.7 249 202.3 266.8 201.3C284.7 200.3 302.3 201.7 320 203.7C337.7 205.7 355.3 208.3 373.2 212C391 215.7 409 220.3 426.8 218.7C444.7 217 462.3 209 480 205.2C497.7 201.3 515.3 201.7 533.2 203.8C551 206 569 210 586.8 210.8C604.7 211.7 622.3 209.3 640 208.5C657.7 207.7 675.3 208.3 693.2 207.8C711 207.3 729 205.7 746.8 204.7C764.7 203.7 782.3 203.3 800 204.8C817.7 206.3 835.3 209.7 853.2 208.8C871 208 889 203 906.8 204.2C924.7 205.3 942.3 212.7 951.2 216.3L960 220L960 251L951.2 251C942.3 251 924.7 251 906.8 251C889 251 871 251 853.2 251C835.3 251 817.7 251 800 251C782.3 251 764.7 251 746.8 251C729 251 711 251 693.2 251C675.3 251 657.7 251 640 251C622.3 251 604.7 251 586.8 251C569 251 551 251 533.2 251C515.3 251 497.7 251 480 251C462.3 251 444.7 251 426.8 251C409 251 391 251 373.2 251C355.3 251 337.7 251 320 251C302.3 251 284.7 251 266.8 251C249 251 231 251 213.2 251C195.3 251 177.7 251 160 251C142.3 251 124.7 251 106.8 251C89 251 71 251 53.2 251C35.3 251 17.7 251 8.8 251L0 251Z" fill="#99d3dc"></path><path d="M0 231L8.8 229.5C17.7 228 35.3 225 53.2 223.5C71 222 89 222 106.8 224.3C124.7 226.7 142.3 231.3 160 234.2C177.7 237 195.3 238 213.2 238.7C231 239.3 249 239.7 266.8 239.5C284.7 239.3 302.3 238.7 320 238.7C337.7 238.7 355.3 239.3 373.2 239.2C391 239 409 238 426.8 237C444.7 236 462.3 235 480 234.2C497.7 233.3 515.3 232.7 533.2 231.5C551 230.3 569 228.7 586.8 229.8C604.7 231 622.3 235 640 234.3C657.7 233.7 675.3 228.3 693.2 226C711 223.7 729 224.3 746.8 226C764.7 227.7 782.3 230.3 800 230.3C817.7 230.3 835.3 227.7 853.2 226.7C871 225.7 889 226.3 906.8 228.5C924.7 230.7 942.3 234.3 951.2 236.2L960 238L960 251L951.2 251C942.3 251 924.7 251 906.8 251C889 251 871 251 853.2 251C835.3 251 817.7 251 800 251C782.3 251 764.7 251 746.8 251C729 251 711 251 693.2 251C675.3 251 657.7 251 640 251C622.3 251 604.7 251 586.8 251C569 251 551 251 533.2 251C515.3 251 497.7 251 480 251C462.3 251 444.7 251 426.8 251C409 251 391 251 373.2 251C355.3 251 337.7 251 320 251C302.3 251 284.7 251 266.8 251C249 251 231 251 213.2 251C195.3 251 177.7 251 160 251C142.3 251 124.7 251 106.8 251C89 251 71 251 53.2 251C35.3 251 17.7 251 8.8 251L0 251Z" fill="#b9dadb"></path></svg>